<?xml version="1.0" encoding="iso-8859-1"?>
<!-- Generator: Adobe Illustrator 16.0.0, SVG Export Plug-In . SVG Version: 6.00 Build 0)  -->
<!DOCTYPE svg PUBLIC "-//W3C//DTD SVG 1.1//EN" "http://www.w3.org/Graphics/SVG/1.1/DTD/svg11.dtd">
<svg version="1.1" id="Capa_1" xmlns="http://www.w3.org/2000/svg" xmlns:xlink="http://www.w3.org/1999/xlink" x="0px" y="0px"
	 width="25.793px" height="25.793px" viewBox="0 0 25.793 25.793" style="enable-background:new 0 0 25.793 25.793;"
	 xml:space="preserve">
<g>
	<path id="PayPal_3_" d="M16.64,0H5.345L0.341,22.971h6.627l1.623-7.611h4.734c4.527,0,8.316-2.793,9.332-7.54
		C23.806,2.443,19.951,0,16.64,0z M11.699,10.959h-2.16l1.42-6.282h3.246c1.112,0,1.957,0.662,2.233,1.637
		c-0.144-0.024-0.274-0.067-0.431-0.067h-3.246L11.699,10.959z M16.437,7.818c-0.396,1.705-2.018,3.064-3.666,3.129l0.776-3.444
		h2.94C16.472,7.607,16.464,7.708,16.437,7.818z M24.463,9.387c0.38-1.779,0.204-3.23-0.312-4.387
		c1.072,1.28,1.629,3.141,1.096,5.643c-1.018,4.748-4.805,7.539-9.332,7.539h-4.734l-1.623,7.611H2.93l0.274-1.256h5.567
		l1.623-7.609h4.735C19.66,16.928,23.448,14.135,24.463,9.387z"/>
</g>
<g>
</g>
<g>
</g>
<g>
</g>
<g>
</g>
<g>
</g>
<g>
</g>
<g>
</g>
<g>
</g>
<g>
</g>
<g>
</g>
<g>
</g>
<g>
</g>
<g>
</g>
<g>
</g>
<g>
</g>
</svg>
