<?xml version="1.0" encoding="utf-8"?>
<!-- Svg Vector Icons : http://www.onlinewebfonts.com/icon -->
<!DOCTYPE svg PUBLIC "-//W3C//DTD SVG 1.1//EN" "http://www.w3.org/Graphics/SVG/1.1/DTD/svg11.dtd">
<svg version="1.1" xmlns="http://www.w3.org/2000/svg" xmlns:xlink="http://www.w3.org/1999/xlink" x="0px" y="0px" viewBox="0 0 1000 1000" enable-background="new 0 0 1000 1000" xml:space="preserve">
<metadata> Svg Vector Icons : http://www.onlinewebfonts.com/icon </metadata>
<g><path d="M769.5,303.2c0-156.3-126.1-283-281.8-283c-155.6,0-281.8,126.7-281.8,283c0,156.3,126.1,283,281.8,283C643.4,586.1,769.5,459.4,769.5,303.2L769.5,303.2z M255,303.2c0-129.1,104.2-233.7,232.7-233.7c128.5,0,232.8,104.6,232.8,233.7c0,129.1-104.2,233.7-232.8,233.7C359.2,536.9,255,432.3,255,303.2L255,303.2z M10,955.2v24.6h24.5h441h490H990v-24.6c0-220.9-226.7-418.3-490-418.3c-15.8,0-31.6,0.6-47.2,1.9c-13.5,1.1,21.6,13,22.7,26.5c14.3-1.2,10,20.8,24.5,20.8c237.6,0,441,177,441,369.1l24.5-24.6h-490h-441L59,955.2c0-130.7,82.1-250.1,214.4-316.6c12.1-6.1,17-20.9,10.9-33c-6.1-12.2-20.8-17.1-32.9-11C103.4,669,10,804.8,10,955.2L10,955.2z"/></g>
</svg>